<svg width="64" height="64" viewBox="0 0 100 100" fill="none" xmlns="http://www.w3.org/2000/svg">
  <circle cx="50" cy="50" r="48" stroke="#2F4858" stroke-width="4" fill="#F7F3E9"/>
  <line x1="50" y1="2" x2="50" y2="98" stroke="#2F4858" stroke-width="4"/>
  <line x1="2" y1="50" x2="98" y2="50" stroke="#2F4858" stroke-width="4"/>

  <g transform="translate(12, 14) scale(0.85)">
      <path d="M15 12 C 10 7, 2 15, 6 22 C 6 28, 15 35, 20 35 C 25 35, 34 28, 34 22 C 38 15, 30 7, 25 12" fill="#DC2626"/>
      <path d="M20 12 Q 12 4, 20 2 Z" fill="#4ADE80"/>
  </g>

  <g transform="translate(54, 8) scale(0.9)">
      <path d="M20 40 Q 20 15, 35 5" stroke="#D97706" stroke-width="3" fill="none"/>
      <ellipse cx="32" cy="10" rx="3" ry="6" transform="rotate(20 32 10)" fill="#F59E0B"/>
      <ellipse cx="26" cy="18" rx="3" ry="6" transform="rotate(-20 26 18)" fill="#F59E0B"/>
  </g>

  <g transform="translate(8, 54) scale(0.9)">
        <path d="M28 8 L 36 8 L 32 35 Z" fill="#F97316" transform="rotate(-40 32 20)"/>
        <path d="M30 5 L 30 10 M 34 5 L 34 10" stroke="#16A34A" stroke-width="3" transform="rotate(-40 32 20)"/>
  </g>

  <g transform="translate(52, 58) scale(0.85)">
      <path d="M5 18 Q 20 5, 35 18 Q 20 31, 5 18 Z" fill="#9CA3AF"/>
      <path d="M35 18 L 42 12 L 42 24 Z" fill="#9CA3AF"/>
  </g>
</svg>